<?xml version="1.0" encoding="UTF-8"?>
<svg width="26px" height="14px" viewBox="0 0 26 14" version="1.1" xmlns="http://www.w3.org/2000/svg" xmlns:xlink="http://www.w3.org/1999/xlink">
    <!-- Generator: Sketch 51.3 (57544) - http://www.bohemiancoding.com/sketch -->
    <title>Fill 1fashion-lres-</title>
    <desc>Created with Sketch.</desc>
    <defs></defs>
    <g id="Page-1" stroke="none" stroke-width="1" fill="none" fill-rule="evenodd">
        <g id="Artboard" transform="translate(-395.000000, -296.000000)" fill="#58585B">
            <path d="M401.79,306.136 C399.945,306.136 398.444,304.635 398.444,302.79 C398.444,300.945 399.945,299.444 401.79,299.444 C403.636,299.444 405.136,300.945 405.136,302.79 C405.136,304.635 403.636,306.136 401.79,306.136 Z M408.343,301.037 C407.567,298.141 404.928,296 401.79,296 C398.046,296 395,299.046 395,302.79 C395,306.534 398.046,309.58 401.79,309.58 C404.928,309.58 407.567,307.439 408.343,304.543 L415.081,304.543 L415.081,307.266 L420.752,307.266 L420.752,304.543 L420.752,303.761 L420.752,301.037 L408.343,301.037 Z" id="Fill-1"></path>
        </g>
    </g>
</svg>