<?xml version="1.0" encoding="UTF-8"?>
<svg width="18px" height="19px" viewBox="0 0 18 19" version="1.1" xmlns="http://www.w3.org/2000/svg" xmlns:xlink="http://www.w3.org/1999/xlink">
    <!-- Generator: Sketch 51.3 (57544) - http://www.bohemiancoding.com/sketch -->
    <title>Group 21</title>
    <desc>Created with Sketch.</desc>
    <defs></defs>
    <g id="Page-1" stroke="none" stroke-width="1" fill="none" fill-rule="evenodd">
        <g id="Artboard" transform="translate(-459.000000, -528.000000)">
            <g id="Group-21" transform="translate(459.000000, 529.000000)">
                <path d="M14.9141,17.4438 L3.0301,17.4438 C1.6331,17.4438 0.5001,16.3108 0.5001,14.9138 L0.5001,3.0298 C0.5001,1.6328 1.6331,0.4998 3.0301,0.4998 L14.9141,0.4998 C16.3111,0.4998 17.4441,1.6328 17.4441,3.0298 L17.4441,14.9138 C17.4441,16.3108 16.3111,17.4438 14.9141,17.4438 Z" id="Stroke-1" stroke="#303638"></path>
                <path d="M5.7549,8.9725 C5.7549,9.6685 5.1909,10.2325 4.4949,10.2325 C3.7989,10.2325 3.2349,9.6685 3.2349,8.9725 C3.2349,8.2765 3.7989,7.7125 4.4949,7.7125 C5.1909,7.7125 5.7549,8.2765 5.7549,8.9725" id="Fill-3" fill="#303638"></path>
                <path d="M10.3853,8.9725 C10.3853,9.6685 9.8213,10.2325 9.1253,10.2325 C8.4293,10.2325 7.8653,9.6685 7.8653,8.9725 C7.8653,8.2765 8.4293,7.7125 9.1253,7.7125 C9.8213,7.7125 10.3853,8.2765 10.3853,8.9725" id="Fill-5" fill="#303638"></path>
                <path d="M15.0157,8.9725 C15.0157,9.6685 14.4517,10.2325 13.7557,10.2325 C13.0597,10.2325 12.4957,9.6685 12.4957,8.9725 C12.4957,8.2765 13.0597,7.7125 13.7557,7.7125 C14.4517,7.7125 15.0157,8.2765 15.0157,8.9725" id="Fill-7" fill="#303638"></path>
                <path d="M5.7549,4.2677 C5.7549,4.9637 5.1909,5.5277 4.4949,5.5277 C3.7989,5.5277 3.2349,4.9637 3.2349,4.2677 C3.2349,3.5717 3.7989,3.0077 4.4949,3.0077 C5.1909,3.0077 5.7549,3.5717 5.7549,4.2677" id="Fill-9" fill="#303638"></path>
                <path d="M10.3853,4.2677 C10.3853,4.9637 9.8213,5.5277 9.1253,5.5277 C8.4293,5.5277 7.8653,4.9637 7.8653,4.2677 C7.8653,3.5717 8.4293,3.0077 9.1253,3.0077 C9.8213,3.0077 10.3853,3.5717 10.3853,4.2677" id="Fill-11" fill="#303638"></path>
                <path d="M15.0157,4.2677 C15.0157,4.9637 14.4517,5.5277 13.7557,5.5277 C13.0597,5.5277 12.4957,4.9637 12.4957,4.2677 C12.4957,3.5717 13.0597,3.0077 13.7557,3.0077 C14.4517,3.0077 15.0157,3.5717 15.0157,4.2677" id="Fill-13" fill="#303638"></path>
                <path d="M5.7549,13.6773 C5.7549,14.3733 5.1909,14.9373 4.4949,14.9373 C3.7989,14.9373 3.2349,14.3733 3.2349,13.6773 C3.2349,12.9813 3.7989,12.4173 4.4949,12.4173 C5.1909,12.4173 5.7549,12.9813 5.7549,13.6773" id="Fill-15" fill="#303638"></path>
                <path d="M10.3853,13.6773 C10.3853,14.3733 9.8213,14.9373 9.1253,14.9373 C8.4293,14.9373 7.8653,14.3733 7.8653,13.6773 C7.8653,12.9813 8.4293,12.4173 9.1253,12.4173 C9.8213,12.4173 10.3853,12.9813 10.3853,13.6773" id="Fill-17" fill="#303638"></path>
                <path d="M15.0157,13.6773 C15.0157,14.3733 14.4517,14.9373 13.7557,14.9373 C13.0597,14.9373 12.4957,14.3733 12.4957,13.6773 C12.4957,12.9813 13.0597,12.4173 13.7557,12.4173 C14.4517,12.4173 15.0157,12.9813 15.0157,13.6773" id="Fill-19" fill="#303638"></path>
            </g>
        </g>
    </g>
</svg>