<?xml version="1.0" encoding="UTF-8"?>
<svg width="27px" height="27px" viewBox="0 0 27 27" version="1.1" xmlns="http://www.w3.org/2000/svg" xmlns:xlink="http://www.w3.org/1999/xlink">
    <!-- Generator: Sketch 51.3 (57544) - http://www.bohemiancoding.com/sketch -->
    <title>Group 3</title>
    <desc>Created with Sketch.</desc>
    <defs>
        <polygon id="path-1" points="0.0002 0.0005 26.95 0.0005 26.95 26.9501 0.0002 26.9501"></polygon>
    </defs>
    <g id="Page-1" stroke="none" stroke-width="1" fill="none" fill-rule="evenodd">
        <g id="Artboard" transform="translate(-502.000000, -442.000000)">
            <g id="Group-3" transform="translate(502.000000, 442.000000)">
                <mask id="mask-2" fill="white">
                    <use xlink:href="#path-1"></use>
                </mask>
                <g id="Clip-2"></g>
                <path d="M13.4752,9.6621 C11.3692,9.6621 9.6622,11.3691 9.6622,13.4751 C9.6622,15.5811 11.3692,17.2881 13.4752,17.2881 C15.5812,17.2881 17.2882,15.5811 17.2882,13.4751 C17.2882,11.3691 15.5812,9.6621 13.4752,9.6621 M26.9502,11.7121 L26.9502,15.2381 C26.9502,15.6621 26.6072,16.0051 26.1832,16.0051 L22.5352,16.0051 C22.3302,16.7411 22.0382,17.4411 21.6702,18.0921 L24.2502,20.6721 C24.5502,20.9721 24.5502,21.4571 24.2502,21.7571 L21.7572,24.2501 C21.6072,24.4001 21.4112,24.4751 21.2142,24.4751 C21.0182,24.4751 20.8222,24.4001 20.6722,24.2501 L18.0922,21.6701 C17.4402,22.0381 16.7412,22.3301 16.0052,22.5351 L16.0052,26.1831 C16.0052,26.6071 15.6622,26.9501 15.2382,26.9501 L11.7122,26.9501 C11.2882,26.9501 10.9452,26.6071 10.9452,26.1831 L10.9452,22.5351 C10.2092,22.3301 9.5092,22.0381 8.8582,21.6701 L6.2782,24.2501 C6.1282,24.4001 5.9322,24.4751 5.7362,24.4751 C5.5392,24.4751 5.3432,24.4001 5.1932,24.2501 L2.7002,21.7571 C2.4002,21.4571 2.4002,20.9721 2.7002,20.6721 L5.2802,18.0921 C4.9122,17.4411 4.6202,16.7411 4.4152,16.0051 L0.7672,16.0051 C0.3432,16.0051 0.0002,15.6621 0.0002,15.2381 L0.0002,11.7121 C0.0002,11.2881 0.3432,10.9451 0.7672,10.9451 L4.4152,10.9451 C4.6202,10.2091 4.9122,9.5101 5.2802,8.8581 L2.7002,6.2781 C2.4002,5.9791 2.4002,5.4931 2.7002,5.1941 L5.1932,2.7001 C5.4932,2.4011 5.9792,2.4011 6.2782,2.7001 L8.8582,5.2801 C9.5092,4.9131 10.2092,4.6211 10.9452,4.4151 L10.9452,0.7671 C10.9452,0.3431 11.2882,0.0001 11.7122,0.0001 L15.2382,0.0001 C15.6622,0.0001 16.0052,0.3431 16.0052,0.7671 L16.0052,4.4151 C16.7412,4.6211 17.4412,4.9131 18.0922,5.2801 L20.6722,2.7001 C20.9712,2.4011 21.4572,2.4011 21.7572,2.7001 L24.2502,5.1941 C24.5502,5.4931 24.5502,5.9791 24.2502,6.2781 L21.6702,8.8581 C22.0382,9.5101 22.3302,10.2091 22.5352,10.9451 L26.1832,10.9451 C26.6072,10.9451 26.9502,11.2881 26.9502,11.7121" id="Fill-1" fill="#FEFEFE" mask="url(#mask-2)"></path>
            </g>
        </g>
    </g>
</svg>