<?xml version="1.0" encoding="UTF-8"?>
<svg width="24px" height="22px" viewBox="0 0 24 22" version="1.1" xmlns="http://www.w3.org/2000/svg" xmlns:xlink="http://www.w3.org/1999/xlink">
    <!-- Generator: Sketch 51.3 (57544) - http://www.bohemiancoding.com/sketch -->
    <title>Group 15fashion-lres-</title>
    <desc>Created with Sketch.</desc>
    <defs>
        <polygon id="path-1" points="0.9131 0.108 5.7751 0.108 5.7751 11.1019 0.9131 11.1019"></polygon>
        <polygon id="path-3" points="0.5109 0.108 6.9249 0.108 6.9249 11.1019 0.5109 11.1019"></polygon>
    </defs>
    <g id="Page-1" stroke="none" stroke-width="1" fill="none" fill-rule="evenodd">
        <g id="Artboard" transform="translate(-396.000000, -142.000000)">
            <g id="Group-15" transform="translate(396.000000, 141.000000)">
                <path d="M16.7471,11.9942 C17.7551,11.9942 18.6131,11.3692 18.9661,10.4872 L16.9371,1.0002 L14.1401,1.0002 L14.5751,10.5922 C14.9521,11.4182 15.7801,11.9942 16.7471,11.9942" id="Fill-1" fill="#FEFEFE"></path>
                <path d="M11.9619,11.9942 C12.8459,11.9942 13.6089,11.5092 14.0239,10.7962 L13.5789,1.0002 L10.3359,1.0002 L9.8999,10.7952 C10.3149,11.5092 11.0779,11.9942 11.9619,11.9942" id="Fill-3" fill="#FEFEFE"></path>
                <g id="Group-7" transform="translate(4.000000, 0.892100)">
                    <mask id="mask-2" fill="white">
                        <use xlink:href="#path-1"></use>
                    </mask>
                    <g id="Clip-6"></g>
                    <path d="M2.9111,0.1079 L0.9131,9.4489 C1.2261,10.4059 2.1161,11.1019 3.1781,11.1019 C4.1431,11.1019 4.9701,10.5269 5.3481,9.7029 L5.7751,0.1079 L2.9111,0.1079 Z" id="Fill-5" fill="#FEFEFE" mask="url(#mask-2)"></path>
                </g>
                <path d="M4.1543,11.2085 L6.3373,1.0005 L5.0033,1.0005 C4.1123,1.0005 3.3073,1.5275 2.9523,2.3425 L0.2083,8.6335 C0.1983,8.6565 0.1873,8.6795 0.1773,8.7025 L0.1673,8.7275 L0.1703,8.7285 C0.0633,8.9995 0.0003,9.2925 0.0003,9.6025 C0.0003,10.9225 1.0713,11.9945 2.3923,11.9945 C3.0923,11.9945 3.7173,11.6875 4.1543,11.2085" id="Fill-8" fill="#FEFEFE"></path>
                <path d="M20.2803,19.7788 C20.2803,20.5768 19.6313,21.2278 18.8323,21.2278 L5.2763,21.2278 C4.4773,21.2278 3.8283,20.5768 3.8283,19.7788 L3.8283,13.2408 L2.1633,13.2408 L2.1633,19.7788 C2.1633,21.4948 3.5593,22.8918 5.2763,22.8918 L18.8323,22.8918 C20.5493,22.8918 21.9453,21.4948 21.9453,19.7788 L21.9453,13.2408 L20.2803,13.2408 L20.2803,19.7788 Z" id="Fill-10" fill="#FEFEFE"></path>
                <g id="Group-14" transform="translate(17.000000, 0.892100)">
                    <mask id="mask-4" fill="white">
                        <use xlink:href="#path-3"></use>
                    </mask>
                    <g id="Clip-13"></g>
                    <path d="M6.5049,7.3589 L4.1499,1.4709 C3.7989,0.6439 2.9879,0.1079 2.0909,0.1079 L0.5109,0.1079 L2.6669,10.1919 C3.1059,10.7419 3.7739,11.1019 4.5319,11.1019 C5.8539,11.1019 6.9249,10.0309 6.9249,8.7099 C6.9249,8.2079 6.7689,7.7439 6.5049,7.3589" id="Fill-12" fill="#FEFEFE" mask="url(#mask-4)"></path>
                </g>
            </g>
        </g>
    </g>
</svg>