<?xml version="1.0" encoding="UTF-8"?>
<svg width="27px" height="27px" viewBox="0 0 27 27" version="1.1" xmlns="http://www.w3.org/2000/svg" xmlns:xlink="http://www.w3.org/1999/xlink">
    <!-- Generator: Sketch 51.3 (57544) - http://www.bohemiancoding.com/sketch -->
    <title>Group 3fashion-lres-</title>
    <desc>Created with Sketch.</desc>
    <defs>
        <polygon id="path-1" points="0 0 26.204 0 26.204 26.2046 0 26.2046"></polygon>
    </defs>
    <g id="Page-1" stroke="none" stroke-width="1" fill="none" fill-rule="evenodd">
        <g id="Artboard" transform="translate(-56.000000, -52.000000)">
            <g id="Group-3" transform="translate(56.000000, 52.000000)">
                <mask id="mask-2" fill="white">
                    <use xlink:href="#path-1"></use>
                </mask>
                <g id="Clip-2"></g>
                <path d="M13.1016,9.395 C11.0536,9.395 9.3936,11.054 9.3936,13.102 C9.3936,15.15 11.0536,16.81 13.1016,16.81 C15.1496,16.81 16.8096,15.15 16.8096,13.102 C16.8096,11.054 15.1496,9.395 13.1016,9.395 M26.2046,11.388 L26.2046,14.816 C26.2046,15.228 25.8706,15.562 25.4576,15.562 L21.9106,15.562 C21.7106,16.278 21.4266,16.958 21.0696,17.591 L23.5786,20.1 C23.8696,20.391 23.8696,20.864 23.5786,21.155 L21.1546,23.579 C21.0086,23.725 20.8176,23.797 20.6266,23.797 C20.4356,23.797 20.2456,23.725 20.0996,23.579 L17.5906,21.07 C16.9566,21.428 16.2776,21.711 15.5616,21.911 L15.5616,25.458 C15.5616,25.871 15.2276,26.205 14.8156,26.205 L11.3876,26.205 C10.9756,26.205 10.6416,25.871 10.6416,25.458 L10.6416,21.911 C9.9256,21.711 9.2466,21.428 8.6126,21.07 L6.1036,23.579 C5.9576,23.725 5.7676,23.797 5.5766,23.797 C5.3856,23.797 5.1946,23.725 5.0486,23.579 L2.6246,21.155 C2.3336,20.864 2.3336,20.391 2.6246,20.1 L5.1336,17.591 C4.7766,16.958 4.4926,16.278 4.2926,15.562 L0.7456,15.562 C0.3326,15.562 -0.0004,15.228 -0.0004,14.816 L-0.0004,11.388 C-0.0004,10.976 0.3326,10.642 0.7456,10.642 L4.2926,10.642 C4.4926,9.926 4.7766,9.247 5.1336,8.613 L2.6246,6.105 C2.3336,5.813 2.3336,5.341 2.6246,5.05 L5.0486,2.625 C5.3396,2.334 5.8126,2.334 6.1036,2.625 L8.6126,5.134 C9.2466,4.777 9.9256,4.493 10.6416,4.293 L10.6416,0.746 C10.6416,0.334 10.9756,0 11.3876,0 L14.8156,0 C15.2276,0 15.5616,0.334 15.5616,0.746 L15.5616,4.293 C16.2776,4.493 16.9566,4.777 17.5906,5.134 L20.0996,2.625 C20.3906,2.334 20.8636,2.334 21.1546,2.625 L23.5786,5.05 C23.8696,5.341 23.8696,5.813 23.5786,6.105 L21.0696,8.613 C21.4266,9.247 21.7106,9.926 21.9106,10.642 L25.4576,10.642 C25.8706,10.642 26.2046,10.976 26.2046,11.388" id="Fill-1" fill="#FEFEFE" mask="url(#mask-2)"></path>
            </g>
        </g>
    </g>
</svg>