<?xml version="1.0" encoding="UTF-8"?>
<svg width="32px" height="13px" viewBox="0 0 32 13" version="1.1" xmlns="http://www.w3.org/2000/svg" xmlns:xlink="http://www.w3.org/1999/xlink">
    <!-- Generator: Sketch 51.3 (57544) - http://www.bohemiancoding.com/sketch -->
    <title>Group 3fashion-lres-</title>
    <desc>Created with Sketch.</desc>
    <defs>
        <polygon id="path-1" points="0.0004 0.0005 31.825 0.0005 31.825 12.501 0.0004 12.501"></polygon>
    </defs>
    <g id="Page-1" stroke="none" stroke-width="1" fill="none" fill-rule="evenodd">
        <g id="Artboard" transform="translate(-54.000000, -99.000000)">
            <g id="Group-3" transform="translate(54.000000, 99.000000)">
                <mask id="mask-2" fill="white">
                    <use xlink:href="#path-1"></use>
                </mask>
                <g id="Clip-2"></g>
                <path d="M26.5684,11.2525 C24.6014,10.9565 23.0004,10.4065 22.1164,9.8865 L22.7504,9.1825 L22.7504,7.2965 C25.8734,8.0265 29.7864,9.2525 30.6724,10.7685 C30.7284,10.8655 30.7834,10.9965 30.7514,11.0435 C30.5374,11.3595 29.0954,11.6345 26.5684,11.2525 M18.4894,7.3955 C17.8014,7.3955 17.2444,6.8375 17.2444,6.1505 C17.2444,5.4625 17.8014,4.9055 18.4894,4.9055 C19.1764,4.9055 19.7344,5.4625 19.7344,6.1505 C19.7344,6.8375 19.1764,7.3955 18.4894,7.3955 M31.5904,10.2315 C30.4244,8.2355 25.8654,6.8985 22.7504,6.1965 L22.7504,3.3865 L19.9474,0.0005 L0.0004,0.0005 L0.0004,12.3005 L19.9474,12.3005 L21.3914,10.6925 C23.0244,11.7615 25.9844,12.2415 26.4104,12.3055 C26.9744,12.3915 27.8814,12.5015 28.7924,12.5015 C29.9804,12.5015 31.1754,12.3135 31.6324,11.6405 C31.7904,11.4095 31.9934,10.9195 31.5904,10.2315" id="Fill-1" fill="#58585B" mask="url(#mask-2)"></path>
            </g>
        </g>
    </g>
</svg>