<?xml version="1.0" encoding="UTF-8"?>
<svg width="16px" height="29px" viewBox="0 0 16 29" version="1.1" xmlns="http://www.w3.org/2000/svg" xmlns:xlink="http://www.w3.org/1999/xlink">
    <!-- Generator: Sketch 51.3 (57544) - http://www.bohemiancoding.com/sketch -->
    <title>Group 3</title>
    <desc>Created with Sketch.</desc>
    <defs>
        <polygon id="path-1" points="0 0.0004 15.905 0.0004 15.905 28.7674 0 28.7674"></polygon>
    </defs>
    <g id="Page-1" stroke="none" stroke-width="1" fill="none" fill-rule="evenodd">
        <g id="Artboard" transform="translate(-507.000000, -501.000000)">
            <g id="Group-3" transform="translate(507.000000, 501.000000)">
                <mask id="mask-2" fill="white">
                    <use xlink:href="#path-1"></use>
                </mask>
                <g id="Clip-2"></g>
                <path d="M5.2336,28.7674 L5.2336,24.5414 C5.2336,23.9844 5.0376,23.4444 4.6776,23.0204 C3.3846,21.4964 -0.0004,17.4754 -0.0004,15.8834 L-0.0004,9.3784 C-0.0004,8.8674 0.5606,8.5544 0.9956,8.8234 L2.0626,9.5094 C2.4396,9.7424 2.6696,10.1544 2.6696,10.5974 L2.6746,13.6974 L3.8136,13.7214 L3.8136,1.8564 C3.8136,0.8304 4.3636,0.0004 5.3886,0.0004 C6.4136,0.0004 7.2446,0.8304 7.2446,1.8564 L7.2446,7.2694 L14.0706,10.8044 C15.1976,11.3874 15.9056,12.5514 15.9056,13.8214 L15.9056,21.0794 C15.9056,22.0574 15.6086,23.0124 15.0546,23.8184 C14.5006,24.6244 14.2046,25.5794 14.2046,26.5574 L14.2046,28.7674 L5.2336,28.7674 Z" id="Fill-1" fill="#FEFEFE" mask="url(#mask-2)"></path>
            </g>
        </g>
    </g>
</svg>