<svg width="18" height="19" viewBox="0 0 18 19" xmlns="http://www.w3.org/2000/svg"><g fill="none"><path d="M14.914 18.444h-11.884c-1.397 0-2.53-1.133-2.53-2.53v-11.884c0-1.397 1.133-2.53 2.53-2.53h11.884c1.397 0 2.53 1.133 2.53 2.53v11.884c0 1.397-1.133 2.53-2.53 2.53z" stroke="#FEFEFE"/><path d="M5.755 9.973c0 .696-.564 1.26-1.26 1.26-.696 0-1.26-.564-1.26-1.26 0-.696.564-1.26 1.26-1.26.696 0 1.26.564 1.26 1.26" fill="#FEFEFE"/><path d="M10.385 9.973c0 .696-.564 1.26-1.26 1.26-.696 0-1.26-.564-1.26-1.26 0-.696.564-1.26 1.26-1.26.696 0 1.26.564 1.26 1.26" fill="#FEFEFE"/><path d="M15.016 9.973c0 .696-.564 1.26-1.26 1.26-.696 0-1.26-.564-1.26-1.26 0-.696.564-1.26 1.26-1.26.696 0 1.26.564 1.26 1.26" fill="#FEFEFE"/><path d="M5.755 5.268c0 .696-.564 1.26-1.26 1.26-.696 0-1.26-.564-1.26-1.26 0-.696.564-1.26 1.26-1.26.696 0 1.26.564 1.26 1.26" fill="#FEFEFE"/><path d="M10.385 5.268c0 .696-.564 1.26-1.26 1.26-.696 0-1.26-.564-1.26-1.26 0-.696.564-1.26 1.26-1.26.696 0 1.26.564 1.26 1.26" fill="#FEFEFE"/><path d="M15.016 5.268c0 .696-.564 1.26-1.26 1.26-.696 0-1.26-.564-1.26-1.26 0-.696.564-1.26 1.26-1.26.696 0 1.26.564 1.26 1.26" fill="#FEFEFE"/><path d="M5.755 14.677c0 .696-.564 1.26-1.26 1.26-.696 0-1.26-.564-1.26-1.26 0-.696.564-1.26 1.26-1.26.696 0 1.26.564 1.26 1.26" fill="#FEFEFE"/><path d="M10.385 14.677c0 .696-.564 1.26-1.26 1.26-.696 0-1.26-.564-1.26-1.26 0-.696.564-1.26 1.26-1.26.696 0 1.26.564 1.26 1.26" fill="#FEFEFE"/><path d="M15.016 14.677c0 .696-.564 1.26-1.26 1.26-.696 0-1.26-.564-1.26-1.26 0-.696.564-1.26 1.26-1.26.696 0 1.26.564 1.26 1.26" fill="#FEFEFE"/></g></svg>
